<svg xmlns="http://www.w3.org/2000/svg" xmlns:xlink="http://www.w3.org/1999/xlink" width="500" zoomAndPan="magnify" viewBox="0 0 375 374.999991" height="500" preserveAspectRatio="xMidYMid meet" version="1.0"><defs><filter x="0%" y="0%" width="100%" height="100%" id="77f02377d6"><feColorMatrix values="0 0 0 0 1 0 0 0 0 1 0 0 0 0 1 0 0 0 1 0" color-interpolation-filters="sRGB"/></filter><clipPath id="dd4b47cdcd"><path d="M 310 39.136719 L 360.730469 39.136719 L 360.730469 187 L 310 187 Z M 310 39.136719 " clip-rule="nonzero"/></clipPath><clipPath id="75317b1122"><path d="M 310 84 L 360.730469 84 L 360.730469 187 L 310 187 Z M 310 84 " clip-rule="nonzero"/></clipPath><clipPath id="a435bf0c43"><path d="M 314 39.136719 L 356 39.136719 L 356 80 L 314 80 Z M 314 39.136719 " clip-rule="nonzero"/></clipPath><clipPath id="c36a1128bc"><path d="M 115 39.136719 L 167 39.136719 L 167 187 L 115 187 Z M 115 39.136719 " clip-rule="nonzero"/></clipPath><clipPath id="344d2371e0"><path d="M 120 39.136719 L 161 39.136719 L 161 80 L 120 80 Z M 120 39.136719 " clip-rule="nonzero"/></clipPath><clipPath id="f2e2ebadf8"><path d="M 14.230469 39.136719 L 65 39.136719 L 65 187 L 14.230469 187 Z M 14.230469 39.136719 " clip-rule="nonzero"/></clipPath><clipPath id="ae8cb5fb86"><path d="M 14.230469 84 L 65 84 L 65 187 L 14.230469 187 Z M 14.230469 84 " clip-rule="nonzero"/></clipPath><clipPath id="3c7652d4e6"><path d="M 18 39.136719 L 59 39.136719 L 59 80 L 18 80 Z M 18 39.136719 " clip-rule="nonzero"/></clipPath><clipPath id="0de9e446f2"><path d="M 213 39.136719 L 264 39.136719 L 264 187 L 213 187 Z M 213 39.136719 " clip-rule="nonzero"/></clipPath><clipPath id="05c0ae871f"><path d="M 217 39.136719 L 259 39.136719 L 259 80 L 217 80 Z M 217 39.136719 " clip-rule="nonzero"/></clipPath><clipPath id="8a19dd42cc"><path d="M 310 39.136719 L 360.730469 39.136719 L 360.730469 187 L 310 187 Z M 310 39.136719 " clip-rule="nonzero"/></clipPath><mask id="c393ca0cbf"><g filter="url(#77f02377d6)"><rect x="-37.5" width="450" fill="#000000" y="-37.499999" height="449.999989" fill-opacity="0.5"/></g></mask><clipPath id="03d483d7b2"><path d="M 0.320312 0.136719 L 50.730469 0.136719 L 50.730469 147.71875 L 0.320312 147.71875 Z M 0.320312 0.136719 " clip-rule="nonzero"/></clipPath><clipPath id="4a3a317f2a"><path d="M 0.320312 45 L 50.730469 45 L 50.730469 147.71875 L 0.320312 147.71875 Z M 0.320312 45 " clip-rule="nonzero"/></clipPath><clipPath id="073c557799"><path d="M 4 0.136719 L 46 0.136719 L 46 41 L 4 41 Z M 4 0.136719 " clip-rule="nonzero"/></clipPath><clipPath id="afd6725991"><rect x="0" width="51" y="0" height="148"/></clipPath><clipPath id="e42d1a225e"><path d="M 115 39.136719 L 167 39.136719 L 167 187 L 115 187 Z M 115 39.136719 " clip-rule="nonzero"/></clipPath><mask id="e5cadb8328"><g filter="url(#77f02377d6)"><rect x="-37.5" width="450" fill="#000000" y="-37.499999" height="449.999989" fill-opacity="0.5"/></g></mask><clipPath id="2965941588"><path d="M 0.441406 0.136719 L 51.558594 0.136719 L 51.558594 147.71875 L 0.441406 147.71875 Z M 0.441406 0.136719 " clip-rule="nonzero"/></clipPath><clipPath id="4138ba96ca"><path d="M 0.441406 45 L 51.558594 45 L 51.558594 147.71875 L 0.441406 147.71875 Z M 0.441406 45 " clip-rule="nonzero"/></clipPath><clipPath id="ad36f8863e"><path d="M 5 0.136719 L 46 0.136719 L 46 41 L 5 41 Z M 5 0.136719 " clip-rule="nonzero"/></clipPath><clipPath id="66d73e34e5"><rect x="0" width="52" y="0" height="148"/></clipPath><clipPath id="8f487c672a"><path d="M 14.230469 39.136719 L 65 39.136719 L 65 187 L 14.230469 187 Z M 14.230469 39.136719 " clip-rule="nonzero"/></clipPath><mask id="76f3fce837"><g filter="url(#77f02377d6)"><rect x="-37.5" width="450" fill="#000000" y="-37.499999" height="449.999989" fill-opacity="0.5"/></g></mask><clipPath id="205d6f71df"><path d="M 0.230469 0.136719 L 50.558594 0.136719 L 50.558594 147.71875 L 0.230469 147.71875 Z M 0.230469 0.136719 " clip-rule="nonzero"/></clipPath><clipPath id="45a7a231c0"><path d="M 0.230469 45 L 50.558594 45 L 50.558594 147.71875 L 0.230469 147.71875 Z M 0.230469 45 " clip-rule="nonzero"/></clipPath><clipPath id="5693af2b70"><path d="M 4 0.136719 L 45 0.136719 L 45 41 L 4 41 Z M 4 0.136719 " clip-rule="nonzero"/></clipPath><clipPath id="9034d6b52f"><rect x="0" width="51" y="0" height="148"/></clipPath><clipPath id="6c6c0cebcc"><path d="M 213 39.136719 L 264 39.136719 L 264 187 L 213 187 Z M 213 39.136719 " clip-rule="nonzero"/></clipPath><mask id="21ca5cd95d"><g filter="url(#77f02377d6)"><rect x="-37.5" width="450" fill="#000000" y="-37.499999" height="449.999989" fill-opacity="0.5"/></g></mask><clipPath id="1618d06b85"><path d="M 0.121094 0.136719 L 50.761719 0.136719 L 50.761719 147.71875 L 0.121094 147.71875 Z M 0.121094 0.136719 " clip-rule="nonzero"/></clipPath><clipPath id="9fcecb8328"><path d="M 0.121094 45 L 50.761719 45 L 50.761719 147.71875 L 0.121094 147.71875 Z M 0.121094 45 " clip-rule="nonzero"/></clipPath><clipPath id="0d1561e867"><path d="M 4 0.136719 L 46 0.136719 L 46 41 L 4 41 Z M 4 0.136719 " clip-rule="nonzero"/></clipPath><clipPath id="cbd32ede62"><rect x="0" width="51" y="0" height="148"/></clipPath><mask id="080a965478"><g filter="url(#77f02377d6)"><rect x="-37.5" width="450" fill="#000000" y="-37.499999" height="449.999989" fill-opacity="0.3"/></g></mask><clipPath id="4ab5afb844"><path d="M 0.359375 1 L 57.238281 1 L 57.238281 167 L 0.359375 167 Z M 0.359375 1 " clip-rule="nonzero"/></clipPath><clipPath id="37502505d2"><path d="M 0.359375 51 L 57.238281 51 L 57.238281 167 L 0.359375 167 Z M 0.359375 51 " clip-rule="nonzero"/></clipPath><clipPath id="f9fbab236a"><rect x="0" width="58" y="0" height="167"/></clipPath><mask id="8622d08d24"><g filter="url(#77f02377d6)"><rect x="-37.5" width="450" fill="#000000" y="-37.499999" height="449.999989" fill-opacity="0.3"/></g></mask><clipPath id="61072cfaf8"><rect x="0" width="59" y="0" height="167"/></clipPath><mask id="ab81db7a33"><g filter="url(#77f02377d6)"><rect x="-37.5" width="450" fill="#000000" y="-37.499999" height="449.999989" fill-opacity="0.3"/></g></mask><clipPath id="8ece299b0f"><path d="M 0.480469 1 L 57.359375 1 L 57.359375 167 L 0.480469 167 Z M 0.480469 1 " clip-rule="nonzero"/></clipPath><clipPath id="2c044aa414"><path d="M 0.480469 51 L 57.359375 51 L 57.359375 167 L 0.480469 167 Z M 0.480469 51 " clip-rule="nonzero"/></clipPath><clipPath id="8054e4a8a2"><rect x="0" width="58" y="0" height="167"/></clipPath><mask id="bc0ae607c6"><g filter="url(#77f02377d6)"><rect x="-37.5" width="450" fill="#000000" y="-37.499999" height="449.999989" fill-opacity="0.1"/></g></mask><clipPath id="06ef38c220"><path d="M 0.601562 0.71875 L 63.71875 0.71875 L 63.71875 185 L 0.601562 185 Z M 0.601562 0.71875 " clip-rule="nonzero"/></clipPath><clipPath id="6d25e92739"><path d="M 0.601562 57 L 63.71875 57 L 63.71875 185 L 0.601562 185 Z M 0.601562 57 " clip-rule="nonzero"/></clipPath><clipPath id="ecfdc019bb"><path d="M 6 0.71875 L 57 0.71875 L 57 52 L 6 52 Z M 6 0.71875 " clip-rule="nonzero"/></clipPath><clipPath id="84ffd86cf7"><rect x="0" width="64" y="0" height="186"/></clipPath><mask id="5d0b94149c"><g filter="url(#77f02377d6)"><rect x="-37.5" width="450" fill="#000000" y="-37.499999" height="449.999989" fill-opacity="0.1"/></g></mask><clipPath id="8bbb2f69cf"><path d="M 0.398438 0.71875 L 63.761719 0.71875 L 63.761719 185 L 0.398438 185 Z M 0.398438 0.71875 " clip-rule="nonzero"/></clipPath><clipPath id="7931c0fa94"><path d="M 0.398438 57 L 63.761719 57 L 63.761719 185 L 0.398438 185 Z M 0.398438 57 " clip-rule="nonzero"/></clipPath><clipPath id="b032158a14"><path d="M 5 0.71875 L 57 0.71875 L 57 52 L 5 52 Z M 5 0.71875 " clip-rule="nonzero"/></clipPath><clipPath id="3cdc2fb020"><rect x="0" width="64" y="0" height="186"/></clipPath><clipPath id="353c7c2585"><path d="M 152 131 L 224 131 L 224 336.136719 L 152 336.136719 Z M 152 131 " clip-rule="nonzero"/></clipPath><mask id="cc4c470b39"><g filter="url(#77f02377d6)"><rect x="-37.5" width="450" fill="#000000" y="-37.499999" height="449.999989" fill-opacity="0.4"/></g></mask><clipPath id="d45a73ee24"><path d="M 1 0.28125 L 71.921875 0.28125 L 71.921875 205 L 1 205 Z M 1 0.28125 " clip-rule="nonzero"/></clipPath><clipPath id="f686340b17"><path d="M 1 63 L 71.921875 63 L 71.921875 205 L 1 205 Z M 1 63 " clip-rule="nonzero"/></clipPath><clipPath id="ec3e865fc9"><path d="M 7 0.28125 L 64 0.28125 L 64 58 L 7 58 Z M 7 0.28125 " clip-rule="nonzero"/></clipPath><clipPath id="5ff79ad77d"><rect x="0" width="72" y="0" height="206"/></clipPath></defs><rect x="-37.5" width="450" fill="#ffffff" y="-37.499999" height="449.999989" fill-opacity="1"/><rect x="-37.5" width="450" fill="#ffffff" y="-37.499999" height="449.999989" fill-opacity="1"/><g clip-path="url(#dd4b47cdcd)"><path fill="#516c2d" d="M 310.582031 114.292969 C 310.589844 114.292969 310.597656 114.292969 310.609375 114.292969 C 310.609375 118.824219 310.523438 123.359375 310.628906 127.886719 C 310.757812 133.628906 312.671875 138.753906 315.878906 143.542969 C 317.445312 145.878906 318.867188 148.566406 319.410156 151.28125 C 321.253906 160.527344 322.679688 169.855469 324.265625 179.152344 C 325.15625 184.367188 327.339844 186.277344 332.515625 186.34375 C 334.511719 186.371094 336.515625 186.363281 338.515625 186.34375 C 343.648438 186.285156 346.054688 184.324219 346.925781 179.269531 C 348.09375 172.460938 348.972656 165.59375 350.316406 158.824219 C 351.253906 154.0625 351.703125 148.699219 354.265625 144.875 C 358.066406 139.207031 360.492188 133.476562 360.601562 126.792969 C 360.753906 118.132812 360.671875 109.46875 360.636719 100.804688 C 360.613281 94.265625 357.710938 89.398438 351.460938 87.257812 C 340.824219 83.609375 330.015625 83.613281 319.410156 87.339844 C 313.542969 89.402344 310.667969 94.058594 310.589844 100.296875 C 310.527344 104.960938 310.582031 109.625 310.582031 114.292969 Z M 355.285156 59.925781 C 355.351562 48.597656 346.476562 39.472656 335.269531 39.34375 C 324.320312 39.214844 314.855469 48.527344 314.703125 59.585938 C 314.546875 70.667969 323.667969 79.867188 334.921875 79.980469 C 346.320312 80.097656 355.21875 71.335938 355.285156 59.925781 Z M 355.285156 59.925781 " fill-opacity="1" fill-rule="nonzero"/></g><g clip-path="url(#75317b1122)"><path fill="#516c2d" d="M 310.582031 114.292969 C 310.582031 109.625 310.527344 104.960938 310.589844 100.296875 C 310.671875 94.058594 313.542969 89.402344 319.410156 87.339844 C 330.015625 83.613281 340.824219 83.609375 351.460938 87.257812 C 357.710938 89.398438 360.613281 94.265625 360.636719 100.804688 C 360.675781 109.46875 360.753906 118.132812 360.605469 126.792969 C 360.492188 133.476562 358.066406 139.207031 354.269531 144.875 C 351.703125 148.699219 351.253906 154.058594 350.316406 158.824219 C 348.972656 165.59375 348.097656 172.457031 346.925781 179.269531 C 346.054688 184.320312 343.648438 186.28125 338.515625 186.34375 C 336.515625 186.363281 334.515625 186.371094 332.515625 186.34375 C 327.34375 186.273438 325.15625 184.367188 324.269531 179.152344 C 322.679688 169.855469 321.253906 160.527344 319.414062 151.28125 C 318.867188 148.566406 317.445312 145.878906 315.878906 143.542969 C 312.671875 138.753906 310.757812 133.628906 310.628906 127.886719 C 310.523438 123.355469 310.609375 118.824219 310.609375 114.292969 C 310.597656 114.292969 310.589844 114.292969 310.582031 114.292969 Z M 310.582031 114.292969 " fill-opacity="1" fill-rule="evenodd"/></g><g clip-path="url(#a435bf0c43)"><path fill="#516c2d" d="M 355.285156 59.925781 C 355.21875 71.335938 346.320312 80.097656 334.921875 79.980469 C 323.667969 79.867188 314.546875 70.667969 314.703125 59.585938 C 314.855469 48.53125 324.320312 39.214844 335.269531 39.34375 C 346.476562 39.472656 355.351562 48.597656 355.285156 59.925781 Z M 355.285156 59.925781 " fill-opacity="1" fill-rule="evenodd"/></g><g clip-path="url(#c36a1128bc)"><path fill="#516c2d" d="M 115.90625 114.292969 C 115.914062 114.292969 115.921875 114.292969 115.933594 114.292969 C 115.933594 118.824219 115.851562 123.359375 115.953125 127.886719 C 116.085938 133.628906 118 138.753906 121.207031 143.542969 C 122.769531 145.878906 124.191406 148.566406 124.738281 151.28125 C 126.582031 160.527344 128.003906 169.855469 129.59375 179.152344 C 130.480469 184.367188 132.667969 186.277344 137.839844 186.34375 C 139.839844 186.371094 141.839844 186.363281 143.839844 186.34375 C 148.972656 186.285156 151.382812 184.324219 152.25 179.269531 C 153.421875 172.460938 154.296875 165.59375 155.640625 158.824219 C 156.582031 154.0625 157.027344 148.699219 159.59375 144.875 C 163.394531 139.207031 165.816406 133.476562 165.929688 126.792969 C 166.078125 118.132812 166 109.46875 165.964844 100.804688 C 165.9375 94.265625 163.039062 89.398438 156.785156 87.257812 C 146.148438 83.609375 135.339844 83.613281 124.734375 87.339844 C 118.867188 89.402344 115.996094 94.058594 115.914062 100.296875 C 115.851562 104.960938 115.90625 109.625 115.90625 114.292969 Z M 160.609375 59.925781 C 160.675781 48.597656 151.800781 39.472656 140.59375 39.34375 C 129.644531 39.214844 120.179688 48.527344 120.027344 59.585938 C 119.875 70.667969 128.992188 79.867188 140.246094 79.980469 C 151.644531 80.097656 160.542969 71.335938 160.609375 59.925781 Z M 160.609375 59.925781 " fill-opacity="1" fill-rule="nonzero"/></g><path fill="#516c2d" d="M 115.90625 114.292969 C 115.90625 109.625 115.851562 104.960938 115.914062 100.296875 C 115.996094 94.058594 118.867188 89.402344 124.734375 87.339844 C 135.339844 83.613281 146.148438 83.609375 156.789062 87.257812 C 163.039062 89.398438 165.9375 94.265625 165.964844 100.804688 C 166 109.46875 166.082031 118.132812 165.929688 126.792969 C 165.816406 133.476562 163.394531 139.207031 159.597656 144.875 C 157.027344 148.699219 156.582031 154.058594 155.644531 158.824219 C 154.300781 165.59375 153.421875 172.457031 152.25 179.269531 C 151.382812 184.320312 148.972656 186.28125 143.839844 186.34375 C 141.839844 186.363281 139.839844 186.371094 137.84375 186.34375 C 132.667969 186.273438 130.484375 184.367188 129.59375 179.152344 C 128.003906 169.855469 126.582031 160.527344 124.738281 151.28125 C 124.191406 148.566406 122.769531 145.878906 121.207031 143.542969 C 118 138.753906 116.085938 133.628906 115.953125 127.886719 C 115.851562 123.355469 115.933594 118.824219 115.933594 114.292969 C 115.921875 114.292969 115.914062 114.292969 115.90625 114.292969 Z M 115.90625 114.292969 " fill-opacity="1" fill-rule="evenodd"/><g clip-path="url(#344d2371e0)"><path fill="#516c2d" d="M 160.609375 59.925781 C 160.542969 71.335938 151.644531 80.097656 140.246094 79.980469 C 128.992188 79.867188 119.875 70.667969 120.027344 59.585938 C 120.179688 48.53125 129.644531 39.214844 140.59375 39.34375 C 151.800781 39.472656 160.675781 48.597656 160.609375 59.925781 Z M 160.609375 59.925781 " fill-opacity="1" fill-rule="evenodd"/></g><g clip-path="url(#f2e2ebadf8)"><path fill="#516c2d" d="M 14.25 114.292969 C 14.261719 114.292969 14.269531 114.292969 14.28125 114.292969 C 14.28125 118.824219 14.195312 123.359375 14.300781 127.886719 C 14.429688 133.628906 16.34375 138.753906 19.550781 143.542969 C 21.117188 145.878906 22.539062 148.566406 23.082031 151.28125 C 24.925781 160.527344 26.351562 169.855469 27.941406 179.152344 C 28.828125 184.367188 31.011719 186.277344 36.1875 186.34375 C 38.183594 186.371094 40.1875 186.363281 42.1875 186.34375 C 47.320312 186.285156 49.726562 184.324219 50.597656 179.269531 C 51.765625 172.460938 52.644531 165.59375 53.988281 158.824219 C 54.925781 154.0625 55.375 148.699219 57.9375 144.875 C 61.738281 139.207031 64.164062 133.476562 64.277344 126.792969 C 64.425781 118.132812 64.34375 109.46875 64.308594 100.804688 C 64.285156 94.265625 61.378906 89.398438 55.132812 87.257812 C 44.496094 83.609375 33.6875 83.613281 23.082031 87.339844 C 17.214844 89.402344 14.339844 94.058594 14.261719 100.296875 C 14.199219 104.960938 14.25 109.625 14.25 114.292969 Z M 58.957031 59.925781 C 59.023438 48.597656 50.144531 39.472656 38.941406 39.34375 C 27.992188 39.214844 18.527344 48.527344 18.375 59.585938 C 18.21875 70.667969 27.339844 79.867188 38.59375 79.980469 C 49.992188 80.097656 58.886719 71.335938 58.957031 59.925781 Z M 58.957031 59.925781 " fill-opacity="1" fill-rule="nonzero"/></g><g clip-path="url(#ae8cb5fb86)"><path fill="#516c2d" d="M 14.25 114.292969 C 14.25 109.625 14.199219 104.960938 14.261719 100.296875 C 14.339844 94.058594 17.214844 89.402344 23.082031 87.339844 C 33.6875 83.613281 44.496094 83.609375 55.132812 87.257812 C 61.382812 89.398438 64.285156 94.265625 64.308594 100.804688 C 64.34375 109.46875 64.425781 118.132812 64.277344 126.792969 C 64.164062 133.476562 61.738281 139.207031 57.941406 144.875 C 55.375 148.699219 54.929688 154.058594 53.988281 158.824219 C 52.644531 165.59375 51.769531 172.457031 50.597656 179.269531 C 49.726562 184.320312 47.320312 186.28125 42.1875 186.34375 C 40.1875 186.363281 38.1875 186.371094 36.1875 186.34375 C 31.015625 186.273438 28.828125 184.367188 27.941406 179.152344 C 26.351562 169.855469 24.925781 160.527344 23.085938 151.28125 C 22.539062 148.566406 21.117188 145.878906 19.550781 143.542969 C 16.34375 138.753906 14.433594 133.628906 14.300781 127.886719 C 14.195312 123.355469 14.28125 118.824219 14.28125 114.292969 C 14.269531 114.292969 14.261719 114.292969 14.25 114.292969 Z M 14.25 114.292969 " fill-opacity="1" fill-rule="evenodd"/></g><g clip-path="url(#3c7652d4e6)"><path fill="#516c2d" d="M 58.957031 59.925781 C 58.886719 71.335938 49.992188 80.097656 38.59375 79.980469 C 27.339844 79.867188 18.21875 70.667969 18.375 59.585938 C 18.527344 48.527344 27.992188 39.214844 38.9375 39.34375 C 50.144531 39.472656 59.023438 48.597656 58.957031 59.925781 Z M 58.957031 59.925781 " fill-opacity="1" fill-rule="evenodd"/></g><g clip-path="url(#0de9e446f2)"><path fill="#516c2d" d="M 213.417969 114.292969 C 213.429688 114.292969 213.4375 114.292969 213.449219 114.292969 C 213.449219 118.824219 213.367188 123.359375 213.46875 127.886719 C 213.597656 133.628906 215.511719 138.753906 218.71875 143.542969 C 220.289062 145.878906 221.710938 148.566406 222.25 151.28125 C 224.097656 160.527344 225.515625 169.855469 227.105469 179.152344 C 228 184.367188 230.179688 186.277344 235.355469 186.34375 C 237.355469 186.371094 239.355469 186.363281 241.355469 186.34375 C 246.484375 186.285156 248.898438 184.324219 249.765625 179.269531 C 250.933594 172.460938 251.8125 165.59375 253.15625 158.824219 C 254.097656 154.0625 254.542969 148.699219 257.109375 144.875 C 260.910156 139.207031 263.328125 133.476562 263.441406 126.792969 C 263.59375 118.132812 263.519531 109.46875 263.480469 100.804688 C 263.453125 94.265625 260.550781 89.398438 254.304688 87.257812 C 243.667969 83.609375 232.855469 83.613281 222.25 87.339844 C 216.382812 89.402344 213.507812 94.058594 213.429688 100.296875 C 213.367188 104.960938 213.417969 109.625 213.417969 114.292969 Z M 258.121094 59.925781 C 258.191406 48.597656 249.316406 39.472656 238.109375 39.34375 C 227.164062 39.214844 217.695312 48.527344 217.542969 59.585938 C 217.390625 70.667969 226.503906 79.867188 237.757812 79.980469 C 249.160156 80.097656 258.058594 71.335938 258.121094 59.925781 Z M 258.121094 59.925781 " fill-opacity="1" fill-rule="nonzero"/></g><path fill="#516c2d" d="M 213.417969 114.292969 C 213.417969 109.625 213.367188 104.960938 213.429688 100.296875 C 213.507812 94.058594 216.382812 89.402344 222.25 87.339844 C 232.855469 83.613281 243.667969 83.609375 254.304688 87.257812 C 260.550781 89.398438 263.453125 94.265625 263.480469 100.804688 C 263.519531 109.46875 263.59375 118.132812 263.441406 126.792969 C 263.328125 133.476562 260.910156 139.207031 257.109375 144.875 C 254.546875 148.699219 254.097656 154.058594 253.15625 158.824219 C 251.8125 165.59375 250.933594 172.457031 249.765625 179.269531 C 248.898438 184.320312 246.488281 186.28125 241.359375 186.34375 C 239.355469 186.363281 237.355469 186.371094 235.355469 186.34375 C 230.179688 186.273438 228 184.367188 227.109375 179.152344 C 225.519531 169.855469 224.097656 160.527344 222.253906 151.28125 C 221.710938 148.566406 220.289062 145.878906 218.71875 143.542969 C 215.511719 138.753906 213.597656 133.628906 213.472656 127.886719 C 213.367188 123.355469 213.449219 118.824219 213.449219 114.292969 C 213.441406 114.292969 213.429688 114.292969 213.417969 114.292969 Z M 213.417969 114.292969 " fill-opacity="1" fill-rule="evenodd"/><g clip-path="url(#05c0ae871f)"><path fill="#516c2d" d="M 258.121094 59.925781 C 258.058594 71.335938 249.160156 80.097656 237.757812 79.980469 C 226.503906 79.867188 217.390625 70.667969 217.542969 59.585938 C 217.695312 48.53125 227.164062 39.214844 238.109375 39.34375 C 249.316406 39.472656 258.191406 48.597656 258.121094 59.925781 Z M 258.121094 59.925781 " fill-opacity="1" fill-rule="evenodd"/></g><g clip-path="url(#8a19dd42cc)"><g mask="url(#c393ca0cbf)"><g transform="matrix(1, 0, 0, 1, 310, 39)"><g clip-path="url(#afd6725991)"><g clip-path="url(#03d483d7b2)"><path fill="#000000" d="M 0.582031 75.292969 C 0.589844 75.292969 0.597656 75.292969 0.609375 75.292969 C 0.609375 79.824219 0.523438 84.359375 0.628906 88.886719 C 0.757812 94.628906 2.671875 99.753906 5.878906 104.542969 C 7.445312 106.878906 8.867188 109.566406 9.410156 112.28125 C 11.253906 121.527344 12.679688 130.855469 14.265625 140.152344 C 15.15625 145.367188 17.339844 147.277344 22.515625 147.34375 C 24.511719 147.371094 26.515625 147.363281 28.515625 147.34375 C 33.648438 147.285156 36.054688 145.324219 36.925781 140.269531 C 38.09375 133.460938 38.972656 126.59375 40.316406 119.824219 C 41.253906 115.0625 41.703125 109.699219 44.265625 105.875 C 48.066406 100.207031 50.492188 94.476562 50.601562 87.792969 C 50.753906 79.132812 50.671875 70.46875 50.636719 61.804688 C 50.613281 55.265625 47.710938 50.398438 41.460938 48.257812 C 30.824219 44.609375 20.015625 44.613281 9.410156 48.339844 C 3.542969 50.402344 0.667969 55.058594 0.589844 61.296875 C 0.527344 65.960938 0.582031 70.625 0.582031 75.292969 Z M 45.285156 20.925781 C 45.351562 9.597656 36.476562 0.472656 25.269531 0.34375 C 14.320312 0.214844 4.855469 9.527344 4.703125 20.585938 C 4.546875 31.667969 13.667969 40.867188 24.921875 40.980469 C 36.320312 41.097656 45.21875 32.335938 45.285156 20.925781 Z M 45.285156 20.925781 " fill-opacity="1" fill-rule="nonzero"/></g><g clip-path="url(#4a3a317f2a)"><path fill="#000000" d="M 0.582031 75.292969 C 0.582031 70.625 0.527344 65.960938 0.589844 61.296875 C 0.671875 55.058594 3.542969 50.402344 9.410156 48.339844 C 20.015625 44.613281 30.824219 44.609375 41.460938 48.257812 C 47.710938 50.398438 50.613281 55.265625 50.636719 61.804688 C 50.675781 70.46875 50.753906 79.132812 50.605469 87.792969 C 50.492188 94.476562 48.066406 100.207031 44.269531 105.875 C 41.703125 109.699219 41.253906 115.058594 40.316406 119.824219 C 38.972656 126.59375 38.097656 133.457031 36.925781 140.269531 C 36.054688 145.320312 33.648438 147.28125 28.515625 147.34375 C 26.515625 147.363281 24.515625 147.371094 22.515625 147.34375 C 17.34375 147.273438 15.15625 145.367188 14.269531 140.152344 C 12.679688 130.855469 11.253906 121.527344 9.414062 112.28125 C 8.867188 109.566406 7.445312 106.878906 5.878906 104.542969 C 2.671875 99.753906 0.757812 94.628906 0.628906 88.886719 C 0.523438 84.355469 0.609375 79.824219 0.609375 75.292969 C 0.597656 75.292969 0.589844 75.292969 0.582031 75.292969 Z M 0.582031 75.292969 " fill-opacity="1" fill-rule="evenodd"/></g><g clip-path="url(#073c557799)"><path fill="#000000" d="M 45.285156 20.925781 C 45.21875 32.335938 36.320312 41.097656 24.921875 40.980469 C 13.667969 40.867188 4.546875 31.667969 4.703125 20.585938 C 4.855469 9.53125 14.320312 0.214844 25.269531 0.34375 C 36.476562 0.472656 45.351562 9.597656 45.285156 20.925781 Z M 45.285156 20.925781 " fill-opacity="1" fill-rule="evenodd"/></g></g></g></g></g><g clip-path="url(#e42d1a225e)"><g mask="url(#e5cadb8328)"><g transform="matrix(1, 0, 0, 1, 115, 39)"><g clip-path="url(#66d73e34e5)"><g clip-path="url(#2965941588)"><path fill="#000000" d="M 0.90625 75.292969 C 0.914062 75.292969 0.921875 75.292969 0.933594 75.292969 C 0.933594 79.824219 0.851562 84.359375 0.953125 88.886719 C 1.085938 94.628906 3 99.753906 6.207031 104.542969 C 7.769531 106.878906 9.191406 109.566406 9.738281 112.28125 C 11.582031 121.527344 13.003906 130.855469 14.59375 140.152344 C 15.480469 145.367188 17.667969 147.277344 22.839844 147.34375 C 24.839844 147.371094 26.839844 147.363281 28.839844 147.34375 C 33.972656 147.285156 36.382812 145.324219 37.25 140.269531 C 38.421875 133.460938 39.296875 126.59375 40.640625 119.824219 C 41.582031 115.0625 42.027344 109.699219 44.59375 105.875 C 48.394531 100.207031 50.816406 94.476562 50.929688 87.792969 C 51.078125 79.132812 51 70.46875 50.964844 61.804688 C 50.9375 55.265625 48.039062 50.398438 41.785156 48.257812 C 31.148438 44.609375 20.339844 44.613281 9.734375 48.339844 C 3.867188 50.402344 0.996094 55.058594 0.914062 61.296875 C 0.851562 65.960938 0.90625 70.625 0.90625 75.292969 Z M 45.609375 20.925781 C 45.675781 9.597656 36.800781 0.472656 25.59375 0.34375 C 14.644531 0.214844 5.179688 9.527344 5.027344 20.585938 C 4.875 31.667969 13.992188 40.867188 25.246094 40.980469 C 36.644531 41.097656 45.542969 32.335938 45.609375 20.925781 Z M 45.609375 20.925781 " fill-opacity="1" fill-rule="nonzero"/></g><g clip-path="url(#4138ba96ca)"><path fill="#000000" d="M 0.90625 75.292969 C 0.90625 70.625 0.851562 65.960938 0.914062 61.296875 C 0.996094 55.058594 3.867188 50.402344 9.734375 48.339844 C 20.339844 44.613281 31.148438 44.609375 41.789062 48.257812 C 48.039062 50.398438 50.9375 55.265625 50.964844 61.804688 C 51 70.46875 51.082031 79.132812 50.929688 87.792969 C 50.816406 94.476562 48.394531 100.207031 44.597656 105.875 C 42.027344 109.699219 41.582031 115.058594 40.644531 119.824219 C 39.300781 126.59375 38.421875 133.457031 37.25 140.269531 C 36.382812 145.320312 33.972656 147.28125 28.839844 147.34375 C 26.839844 147.363281 24.839844 147.371094 22.84375 147.34375 C 17.667969 147.273438 15.484375 145.367188 14.59375 140.152344 C 13.003906 130.855469 11.582031 121.527344 9.738281 112.28125 C 9.191406 109.566406 7.769531 106.878906 6.207031 104.542969 C 3 99.753906 1.085938 94.628906 0.953125 88.886719 C 0.851562 84.355469 0.933594 79.824219 0.933594 75.292969 C 0.921875 75.292969 0.914062 75.292969 0.90625 75.292969 Z M 0.90625 75.292969 " fill-opacity="1" fill-rule="evenodd"/></g><g clip-path="url(#ad36f8863e)"><path fill="#000000" d="M 45.609375 20.925781 C 45.542969 32.335938 36.644531 41.097656 25.246094 40.980469 C 13.992188 40.867188 4.875 31.667969 5.027344 20.585938 C 5.179688 9.53125 14.644531 0.214844 25.59375 0.34375 C 36.800781 0.472656 45.675781 9.597656 45.609375 20.925781 Z M 45.609375 20.925781 " fill-opacity="1" fill-rule="evenodd"/></g></g></g></g></g><g clip-path="url(#8f487c672a)"><g mask="url(#76f3fce837)"><g transform="matrix(1, 0, 0, 1, 14, 39)"><g clip-path="url(#9034d6b52f)"><g clip-path="url(#205d6f71df)"><path fill="#000000" d="M 0.25 75.292969 C 0.261719 75.292969 0.269531 75.292969 0.28125 75.292969 C 0.28125 79.824219 0.195312 84.359375 0.300781 88.886719 C 0.429688 94.628906 2.34375 99.753906 5.550781 104.542969 C 7.117188 106.878906 8.539062 109.566406 9.082031 112.28125 C 10.925781 121.527344 12.351562 130.855469 13.941406 140.152344 C 14.828125 145.367188 17.011719 147.277344 22.1875 147.34375 C 24.183594 147.371094 26.1875 147.363281 28.1875 147.34375 C 33.320312 147.285156 35.726562 145.324219 36.597656 140.269531 C 37.765625 133.460938 38.644531 126.59375 39.988281 119.824219 C 40.925781 115.0625 41.375 109.699219 43.9375 105.875 C 47.738281 100.207031 50.164062 94.476562 50.277344 87.792969 C 50.425781 79.132812 50.34375 70.46875 50.308594 61.804688 C 50.285156 55.265625 47.378906 50.398438 41.132812 48.257812 C 30.496094 44.609375 19.6875 44.613281 9.082031 48.339844 C 3.214844 50.402344 0.339844 55.058594 0.261719 61.296875 C 0.199219 65.960938 0.25 70.625 0.25 75.292969 Z M 44.957031 20.925781 C 45.023438 9.597656 36.144531 0.472656 24.941406 0.34375 C 13.992188 0.214844 4.527344 9.527344 4.375 20.585938 C 4.21875 31.667969 13.339844 40.867188 24.59375 40.980469 C 35.992188 41.097656 44.886719 32.335938 44.957031 20.925781 Z M 44.957031 20.925781 " fill-opacity="1" fill-rule="nonzero"/></g><g clip-path="url(#45a7a231c0)"><path fill="#000000" d="M 0.25 75.292969 C 0.25 70.625 0.199219 65.960938 0.261719 61.296875 C 0.339844 55.058594 3.214844 50.402344 9.082031 48.339844 C 19.6875 44.613281 30.496094 44.609375 41.132812 48.257812 C 47.382812 50.398438 50.285156 55.265625 50.308594 61.804688 C 50.34375 70.46875 50.425781 79.132812 50.277344 87.792969 C 50.164062 94.476562 47.738281 100.207031 43.941406 105.875 C 41.375 109.699219 40.929688 115.058594 39.988281 119.824219 C 38.644531 126.59375 37.769531 133.457031 36.597656 140.269531 C 35.726562 145.320312 33.320312 147.28125 28.1875 147.34375 C 26.1875 147.363281 24.1875 147.371094 22.1875 147.34375 C 17.015625 147.273438 14.828125 145.367188 13.941406 140.152344 C 12.351562 130.855469 10.925781 121.527344 9.085938 112.28125 C 8.539062 109.566406 7.117188 106.878906 5.550781 104.542969 C 2.34375 99.753906 0.433594 94.628906 0.300781 88.886719 C 0.195312 84.355469 0.28125 79.824219 0.28125 75.292969 C 0.269531 75.292969 0.261719 75.292969 0.25 75.292969 Z M 0.25 75.292969 " fill-opacity="1" fill-rule="evenodd"/></g><g clip-path="url(#5693af2b70)"><path fill="#000000" d="M 44.957031 20.925781 C 44.886719 32.335938 35.992188 41.097656 24.59375 40.980469 C 13.339844 40.867188 4.21875 31.667969 4.375 20.585938 C 4.527344 9.527344 13.992188 0.214844 24.9375 0.34375 C 36.144531 0.472656 45.023438 9.597656 44.957031 20.925781 Z M 44.957031 20.925781 " fill-opacity="1" fill-rule="evenodd"/></g></g></g></g></g><g clip-path="url(#6c6c0cebcc)"><g mask="url(#21ca5cd95d)"><g transform="matrix(1, 0, 0, 1, 213, 39)"><g clip-path="url(#cbd32ede62)"><g clip-path="url(#1618d06b85)"><path fill="#000000" d="M 0.417969 75.292969 C 0.429688 75.292969 0.4375 75.292969 0.449219 75.292969 C 0.449219 79.824219 0.367188 84.359375 0.46875 88.886719 C 0.597656 94.628906 2.511719 99.753906 5.71875 104.542969 C 7.289062 106.878906 8.710938 109.566406 9.25 112.28125 C 11.097656 121.527344 12.515625 130.855469 14.105469 140.152344 C 15 145.367188 17.179688 147.277344 22.355469 147.34375 C 24.355469 147.371094 26.355469 147.363281 28.355469 147.34375 C 33.484375 147.285156 35.898438 145.324219 36.765625 140.269531 C 37.933594 133.460938 38.8125 126.59375 40.15625 119.824219 C 41.097656 115.0625 41.542969 109.699219 44.109375 105.875 C 47.910156 100.207031 50.328125 94.476562 50.441406 87.792969 C 50.59375 79.132812 50.519531 70.46875 50.480469 61.804688 C 50.453125 55.265625 47.550781 50.398438 41.304688 48.257812 C 30.667969 44.609375 19.855469 44.613281 9.25 48.339844 C 3.382812 50.402344 0.507812 55.058594 0.429688 61.296875 C 0.367188 65.960938 0.417969 70.625 0.417969 75.292969 Z M 45.121094 20.925781 C 45.191406 9.597656 36.316406 0.472656 25.109375 0.34375 C 14.164062 0.214844 4.695312 9.527344 4.542969 20.585938 C 4.390625 31.667969 13.503906 40.867188 24.757812 40.980469 C 36.160156 41.097656 45.058594 32.335938 45.121094 20.925781 Z M 45.121094 20.925781 " fill-opacity="1" fill-rule="nonzero"/></g><g clip-path="url(#9fcecb8328)"><path fill="#000000" d="M 0.417969 75.292969 C 0.417969 70.625 0.367188 65.960938 0.429688 61.296875 C 0.507812 55.058594 3.382812 50.402344 9.25 48.339844 C 19.855469 44.613281 30.667969 44.609375 41.304688 48.257812 C 47.550781 50.398438 50.453125 55.265625 50.480469 61.804688 C 50.519531 70.46875 50.59375 79.132812 50.441406 87.792969 C 50.328125 94.476562 47.910156 100.207031 44.109375 105.875 C 41.546875 109.699219 41.097656 115.058594 40.15625 119.824219 C 38.8125 126.59375 37.933594 133.457031 36.765625 140.269531 C 35.898438 145.320312 33.488281 147.28125 28.359375 147.34375 C 26.355469 147.363281 24.355469 147.371094 22.355469 147.34375 C 17.179688 147.273438 15 145.367188 14.109375 140.152344 C 12.519531 130.855469 11.097656 121.527344 9.253906 112.28125 C 8.710938 109.566406 7.289062 106.878906 5.71875 104.542969 C 2.511719 99.753906 0.597656 94.628906 0.472656 88.886719 C 0.367188 84.355469 0.449219 79.824219 0.449219 75.292969 C 0.441406 75.292969 0.429688 75.292969 0.417969 75.292969 Z M 0.417969 75.292969 " fill-opacity="1" fill-rule="evenodd"/></g><g clip-path="url(#0d1561e867)"><path fill="#000000" d="M 45.121094 20.925781 C 45.058594 32.335938 36.160156 41.097656 24.757812 40.980469 C 13.503906 40.867188 4.390625 31.667969 4.542969 20.585938 C 4.695312 9.53125 14.164062 0.214844 25.109375 0.34375 C 36.316406 0.472656 45.191406 9.597656 45.121094 20.925781 Z M 45.121094 20.925781 " fill-opacity="1" fill-rule="evenodd"/></g></g></g></g></g><path fill="#516c2d" d="M 273.644531 158.453125 C 273.652344 158.453125 273.664062 158.453125 273.675781 158.453125 C 273.675781 163.546875 273.582031 168.652344 273.699219 173.746094 C 273.84375 180.207031 275.996094 185.972656 279.605469 191.359375 C 281.371094 193.984375 282.96875 197.007812 283.582031 200.066406 C 285.652344 210.464844 287.253906 220.960938 289.042969 231.417969 C 290.046875 237.289062 292.5 239.433594 298.320312 239.507812 C 300.570312 239.539062 302.820312 239.535156 305.070312 239.511719 C 310.84375 239.445312 313.558594 237.238281 314.53125 231.554688 C 315.847656 223.890625 316.835938 216.171875 318.347656 208.550781 C 319.402344 203.195312 319.90625 197.160156 322.792969 192.859375 C 327.066406 186.480469 329.796875 180.035156 329.921875 172.519531 C 330.089844 162.773438 330 153.027344 329.960938 143.28125 C 329.929688 135.921875 326.667969 130.445312 319.636719 128.039062 C 307.671875 123.9375 295.507812 123.941406 283.578125 128.132812 C 276.976562 130.453125 273.75 135.6875 273.652344 142.707031 C 273.585938 147.953125 273.644531 153.207031 273.644531 158.453125 Z M 323.9375 97.289062 C 324.011719 84.546875 314.027344 74.28125 301.417969 74.136719 C 289.105469 73.992188 278.453125 84.46875 278.28125 96.90625 C 278.109375 109.375 288.367188 119.722656 301.027344 119.851562 C 313.851562 119.984375 323.859375 110.128906 323.9375 97.289062 Z M 323.9375 97.289062 " fill-opacity="1" fill-rule="nonzero"/><path fill="#516c2d" d="M 273.644531 158.453125 C 273.644531 153.207031 273.585938 147.953125 273.652344 142.707031 C 273.75 135.6875 276.976562 130.453125 283.578125 128.132812 C 295.507812 123.9375 307.671875 123.9375 319.636719 128.039062 C 326.667969 130.445312 329.929688 135.921875 329.960938 143.277344 C 330.003906 153.027344 330.089844 162.773438 329.921875 172.515625 C 329.796875 180.035156 327.070312 186.480469 322.792969 192.859375 C 319.90625 197.160156 319.402344 203.195312 318.347656 208.550781 C 316.835938 216.171875 315.847656 223.890625 314.53125 231.554688 C 313.554688 237.238281 310.84375 239.445312 305.070312 239.511719 C 302.820312 239.53125 300.570312 239.539062 298.320312 239.507812 C 292.5 239.433594 290.046875 237.285156 289.042969 231.417969 C 287.253906 220.957031 285.652344 210.464844 283.582031 200.066406 C 282.96875 197.007812 281.371094 193.984375 279.605469 191.359375 C 275.996094 185.972656 273.84375 180.207031 273.699219 173.746094 C 273.582031 168.648438 273.675781 163.546875 273.675781 158.453125 C 273.664062 158.453125 273.652344 158.453125 273.644531 158.453125 Z M 273.644531 158.453125 " fill-opacity="1" fill-rule="evenodd"/><path fill="#516c2d" d="M 323.9375 97.289062 C 323.859375 110.128906 313.851562 119.984375 301.027344 119.851562 C 288.367188 119.722656 278.109375 109.375 278.28125 96.90625 C 278.453125 84.46875 289.105469 73.992188 301.417969 74.136719 C 314.027344 74.28125 324.011719 84.546875 323.9375 97.289062 Z M 323.9375 97.289062 " fill-opacity="1" fill-rule="evenodd"/><path fill="#516c2d" d="M 162.160156 158.453125 C 162.167969 158.453125 162.179688 158.453125 162.191406 158.453125 C 162.191406 163.546875 162.097656 168.652344 162.214844 173.746094 C 162.359375 180.207031 164.511719 185.972656 168.121094 191.359375 C 169.886719 193.984375 171.484375 197.007812 172.09375 200.066406 C 174.171875 210.464844 175.769531 220.960938 177.558594 231.417969 C 178.558594 237.289062 181.019531 239.433594 186.835938 239.507812 C 189.085938 239.539062 191.339844 239.535156 193.589844 239.511719 C 199.359375 239.445312 202.074219 237.238281 203.046875 231.554688 C 204.363281 223.890625 205.351562 216.171875 206.863281 208.550781 C 207.921875 203.195312 208.425781 197.160156 211.308594 192.859375 C 215.585938 186.480469 218.304688 180.035156 218.433594 172.519531 C 218.605469 162.773438 218.519531 153.027344 218.476562 143.28125 C 218.445312 135.921875 215.183594 130.445312 208.152344 128.039062 C 196.191406 123.9375 184.023438 123.941406 172.09375 128.132812 C 165.492188 130.453125 162.257812 135.6875 162.171875 142.707031 C 162.101562 147.953125 162.160156 153.207031 162.160156 158.453125 Z M 212.449219 97.289062 C 212.527344 84.546875 202.542969 74.28125 189.933594 74.136719 C 177.621094 73.992188 166.96875 84.46875 166.796875 96.90625 C 166.625 109.375 176.878906 119.722656 189.539062 119.851562 C 202.371094 119.984375 212.378906 110.128906 212.449219 97.289062 Z M 212.449219 97.289062 " fill-opacity="1" fill-rule="nonzero"/><path fill="#516c2d" d="M 162.160156 158.453125 C 162.160156 153.207031 162.097656 147.953125 162.167969 142.707031 C 162.257812 135.6875 165.492188 130.453125 172.09375 128.132812 C 184.023438 123.9375 196.1875 123.9375 208.152344 128.039062 C 215.183594 130.445312 218.445312 135.921875 218.476562 143.277344 C 218.519531 153.027344 218.605469 162.773438 218.433594 172.515625 C 218.304688 180.035156 215.585938 186.480469 211.308594 192.859375 C 208.425781 197.160156 207.921875 203.195312 206.863281 208.550781 C 205.351562 216.171875 204.363281 223.890625 203.042969 231.554688 C 202.074219 237.238281 199.359375 239.445312 193.585938 239.511719 C 191.335938 239.53125 189.085938 239.539062 186.835938 239.507812 C 181.015625 239.433594 178.558594 237.285156 177.558594 231.417969 C 175.769531 220.957031 174.167969 210.464844 172.09375 200.066406 C 171.484375 197.007812 169.886719 193.984375 168.121094 191.359375 C 164.511719 185.972656 162.359375 180.207031 162.214844 173.746094 C 162.097656 168.648438 162.191406 163.546875 162.191406 158.453125 C 162.179688 158.453125 162.167969 158.453125 162.160156 158.453125 Z M 162.160156 158.453125 " fill-opacity="1" fill-rule="evenodd"/><path fill="#516c2d" d="M 212.449219 97.289062 C 212.375 110.128906 202.371094 119.984375 189.539062 119.851562 C 176.878906 119.722656 166.625 109.375 166.796875 96.90625 C 166.96875 84.46875 177.621094 73.992188 189.933594 74.136719 C 202.542969 74.28125 212.527344 84.546875 212.449219 97.289062 Z M 212.449219 97.289062 " fill-opacity="1" fill-rule="evenodd"/><path fill="#516c2d" d="M 54.636719 158.453125 C 54.644531 158.453125 54.652344 158.453125 54.667969 158.453125 C 54.667969 163.546875 54.574219 168.652344 54.6875 173.746094 C 54.835938 180.207031 56.988281 185.972656 60.597656 191.359375 C 62.359375 193.984375 63.957031 197.007812 64.570312 200.066406 C 66.644531 210.464844 68.246094 220.960938 70.03125 231.417969 C 71.035156 237.289062 73.488281 239.433594 79.3125 239.507812 C 81.558594 239.539062 83.808594 239.535156 86.0625 239.511719 C 91.832031 239.445312 94.542969 237.238281 95.523438 231.554688 C 96.839844 223.890625 97.824219 216.171875 99.339844 208.550781 C 100.394531 203.195312 100.898438 197.160156 103.785156 192.859375 C 108.058594 186.480469 110.78125 180.035156 110.910156 172.519531 C 111.078125 162.773438 110.988281 153.027344 110.953125 143.28125 C 110.921875 135.921875 107.65625 130.445312 100.625 128.039062 C 88.660156 123.9375 76.5 123.941406 64.566406 128.132812 C 57.964844 130.453125 54.738281 135.6875 54.644531 142.707031 C 54.574219 147.953125 54.636719 153.207031 54.636719 158.453125 Z M 104.925781 97.289062 C 105 84.546875 95.015625 74.28125 82.40625 74.136719 C 70.09375 73.992188 59.445312 84.46875 59.269531 96.90625 C 59.101562 109.375 69.355469 119.722656 82.015625 119.851562 C 94.839844 119.984375 104.847656 110.128906 104.925781 97.289062 Z M 104.925781 97.289062 " fill-opacity="1" fill-rule="nonzero"/><path fill="#516c2d" d="M 54.636719 158.453125 C 54.636719 153.207031 54.574219 147.953125 54.644531 142.707031 C 54.738281 135.6875 57.964844 130.453125 64.566406 128.132812 C 76.5 123.9375 88.660156 123.9375 100.625 128.039062 C 107.65625 130.445312 110.921875 135.921875 110.953125 143.277344 C 110.992188 153.027344 111.078125 162.773438 110.910156 172.515625 C 110.785156 180.035156 108.058594 186.480469 103.785156 192.859375 C 100.898438 197.160156 100.394531 203.195312 99.339844 208.550781 C 97.824219 216.171875 96.839844 223.890625 95.523438 231.554688 C 94.542969 237.238281 91.832031 239.445312 86.0625 239.511719 C 83.808594 239.53125 81.558594 239.539062 79.3125 239.507812 C 73.488281 239.433594 71.035156 237.285156 70.03125 231.417969 C 68.246094 220.957031 66.644531 210.464844 64.570312 200.066406 C 63.957031 197.007812 62.359375 193.984375 60.597656 191.359375 C 56.988281 185.972656 54.835938 180.207031 54.6875 173.746094 C 54.574219 168.648438 54.667969 163.546875 54.667969 158.453125 C 54.652344 158.453125 54.644531 158.453125 54.636719 158.453125 Z M 54.636719 158.453125 " fill-opacity="1" fill-rule="evenodd"/><path fill="#516c2d" d="M 104.925781 97.289062 C 104.847656 110.128906 94.839844 119.984375 82.015625 119.851562 C 69.355469 119.722656 59.101562 109.375 59.269531 96.90625 C 59.445312 84.46875 70.09375 73.992188 82.40625 74.136719 C 95.015625 74.28125 105 84.546875 104.925781 97.289062 Z M 104.925781 97.289062 " fill-opacity="1" fill-rule="evenodd"/><g mask="url(#080a965478)"><g transform="matrix(1, 0, 0, 1, 273, 73)"><g clip-path="url(#f9fbab236a)"><g clip-path="url(#4ab5afb844)"><path fill="#000000" d="M 0.644531 85.453125 C 0.652344 85.453125 0.664062 85.453125 0.675781 85.453125 C 0.675781 90.546875 0.582031 95.652344 0.699219 100.746094 C 0.84375 107.207031 2.996094 112.972656 6.605469 118.359375 C 8.371094 120.984375 9.96875 124.007812 10.582031 127.066406 C 12.652344 137.464844 14.253906 147.960938 16.042969 158.417969 C 17.046875 164.289062 19.5 166.433594 25.320312 166.507812 C 27.570312 166.539062 29.820312 166.535156 32.070312 166.511719 C 37.84375 166.445312 40.558594 164.238281 41.53125 158.554688 C 42.847656 150.890625 43.835938 143.171875 45.347656 135.550781 C 46.402344 130.195312 46.90625 124.160156 49.792969 119.859375 C 54.066406 113.480469 56.796875 107.035156 56.921875 99.519531 C 57.089844 89.773438 57 80.027344 56.960938 70.28125 C 56.929688 62.921875 53.667969 57.445312 46.636719 55.039062 C 34.671875 50.9375 22.507812 50.941406 10.578125 55.132812 C 3.976562 57.453125 0.75 62.6875 0.652344 69.707031 C 0.585938 74.953125 0.644531 80.207031 0.644531 85.453125 Z M 50.9375 24.289062 C 51.011719 11.546875 41.027344 1.28125 28.417969 1.136719 C 16.105469 0.992188 5.453125 11.46875 5.28125 23.90625 C 5.109375 36.375 15.367188 46.722656 28.027344 46.851562 C 40.851562 46.984375 50.859375 37.128906 50.9375 24.289062 Z M 50.9375 24.289062 " fill-opacity="1" fill-rule="nonzero"/></g><g clip-path="url(#37502505d2)"><path fill="#000000" d="M 0.644531 85.453125 C 0.644531 80.207031 0.585938 74.953125 0.652344 69.707031 C 0.75 62.6875 3.976562 57.453125 10.578125 55.132812 C 22.507812 50.9375 34.671875 50.9375 46.636719 55.039062 C 53.667969 57.445312 56.929688 62.921875 56.960938 70.277344 C 57.003906 80.027344 57.089844 89.773438 56.921875 99.515625 C 56.796875 107.035156 54.070312 113.480469 49.792969 119.859375 C 46.90625 124.160156 46.402344 130.195312 45.347656 135.550781 C 43.835938 143.171875 42.847656 150.890625 41.53125 158.554688 C 40.554688 164.238281 37.84375 166.445312 32.070312 166.511719 C 29.820312 166.53125 27.570312 166.539062 25.320312 166.507812 C 19.5 166.433594 17.046875 164.285156 16.042969 158.417969 C 14.253906 147.957031 12.652344 137.464844 10.582031 127.066406 C 9.96875 124.007812 8.371094 120.984375 6.605469 118.359375 C 2.996094 112.972656 0.84375 107.207031 0.699219 100.746094 C 0.582031 95.648438 0.675781 90.546875 0.675781 85.453125 C 0.664062 85.453125 0.652344 85.453125 0.644531 85.453125 Z M 0.644531 85.453125 " fill-opacity="1" fill-rule="evenodd"/></g><path fill="#000000" d="M 50.9375 24.289062 C 50.859375 37.128906 40.851562 46.984375 28.027344 46.851562 C 15.367188 46.722656 5.109375 36.375 5.28125 23.90625 C 5.453125 11.46875 16.105469 0.992188 28.417969 1.136719 C 41.027344 1.28125 51.011719 11.546875 50.9375 24.289062 Z M 50.9375 24.289062 " fill-opacity="1" fill-rule="evenodd"/></g></g></g><g mask="url(#8622d08d24)"><g transform="matrix(1, 0, 0, 1, 161, 73)"><g clip-path="url(#61072cfaf8)"><path fill="#000000" d="M 1.160156 85.453125 C 1.167969 85.453125 1.179688 85.453125 1.191406 85.453125 C 1.191406 90.546875 1.097656 95.652344 1.214844 100.746094 C 1.359375 107.207031 3.511719 112.972656 7.121094 118.359375 C 8.886719 120.984375 10.484375 124.007812 11.09375 127.066406 C 13.171875 137.464844 14.769531 147.960938 16.558594 158.417969 C 17.558594 164.289062 20.019531 166.433594 25.835938 166.507812 C 28.085938 166.539062 30.339844 166.535156 32.589844 166.511719 C 38.359375 166.445312 41.074219 164.238281 42.046875 158.554688 C 43.363281 150.890625 44.351562 143.171875 45.863281 135.550781 C 46.921875 130.195312 47.425781 124.160156 50.308594 119.859375 C 54.585938 113.480469 57.304688 107.035156 57.433594 99.519531 C 57.605469 89.773438 57.519531 80.027344 57.476562 70.28125 C 57.445312 62.921875 54.183594 57.445312 47.152344 55.039062 C 35.191406 50.9375 23.023438 50.941406 11.09375 55.132812 C 4.492188 57.453125 1.257812 62.6875 1.171875 69.707031 C 1.101562 74.953125 1.160156 80.207031 1.160156 85.453125 Z M 51.449219 24.289062 C 51.527344 11.546875 41.542969 1.28125 28.933594 1.136719 C 16.621094 0.992188 5.96875 11.46875 5.796875 23.90625 C 5.625 36.375 15.878906 46.722656 28.539062 46.851562 C 41.371094 46.984375 51.378906 37.128906 51.449219 24.289062 Z M 51.449219 24.289062 " fill-opacity="1" fill-rule="nonzero"/><path fill="#000000" d="M 1.160156 85.453125 C 1.160156 80.207031 1.097656 74.953125 1.167969 69.707031 C 1.257812 62.6875 4.492188 57.453125 11.09375 55.132812 C 23.023438 50.9375 35.1875 50.9375 47.152344 55.039062 C 54.183594 57.445312 57.445312 62.921875 57.476562 70.277344 C 57.519531 80.027344 57.605469 89.773438 57.433594 99.515625 C 57.304688 107.035156 54.585938 113.480469 50.308594 119.859375 C 47.425781 124.160156 46.921875 130.195312 45.863281 135.550781 C 44.351562 143.171875 43.363281 150.890625 42.042969 158.554688 C 41.074219 164.238281 38.359375 166.445312 32.585938 166.511719 C 30.335938 166.53125 28.085938 166.539062 25.835938 166.507812 C 20.015625 166.433594 17.558594 164.285156 16.558594 158.417969 C 14.769531 147.957031 13.167969 137.464844 11.09375 127.066406 C 10.484375 124.007812 8.886719 120.984375 7.121094 118.359375 C 3.511719 112.972656 1.359375 107.207031 1.214844 100.746094 C 1.097656 95.648438 1.191406 90.546875 1.191406 85.453125 C 1.179688 85.453125 1.167969 85.453125 1.160156 85.453125 Z M 1.160156 85.453125 " fill-opacity="1" fill-rule="evenodd"/><path fill="#000000" d="M 51.449219 24.289062 C 51.375 37.128906 41.371094 46.984375 28.539062 46.851562 C 15.878906 46.722656 5.625 36.375 5.796875 23.90625 C 5.96875 11.46875 16.621094 0.992188 28.933594 1.136719 C 41.542969 1.28125 51.527344 11.546875 51.449219 24.289062 Z M 51.449219 24.289062 " fill-opacity="1" fill-rule="evenodd"/></g></g></g><g mask="url(#ab81db7a33)"><g transform="matrix(1, 0, 0, 1, 54, 73)"><g clip-path="url(#8054e4a8a2)"><g clip-path="url(#8ece299b0f)"><path fill="#000000" d="M 0.636719 85.453125 C 0.644531 85.453125 0.652344 85.453125 0.667969 85.453125 C 0.667969 90.546875 0.574219 95.652344 0.6875 100.746094 C 0.835938 107.207031 2.988281 112.972656 6.597656 118.359375 C 8.359375 120.984375 9.957031 124.007812 10.570312 127.066406 C 12.644531 137.464844 14.246094 147.960938 16.03125 158.417969 C 17.035156 164.289062 19.488281 166.433594 25.3125 166.507812 C 27.558594 166.539062 29.808594 166.535156 32.0625 166.511719 C 37.832031 166.445312 40.542969 164.238281 41.523438 158.554688 C 42.839844 150.890625 43.824219 143.171875 45.339844 135.550781 C 46.394531 130.195312 46.898438 124.160156 49.785156 119.859375 C 54.058594 113.480469 56.78125 107.035156 56.910156 99.519531 C 57.078125 89.773438 56.988281 80.027344 56.953125 70.28125 C 56.921875 62.921875 53.65625 57.445312 46.625 55.039062 C 34.660156 50.9375 22.5 50.941406 10.566406 55.132812 C 3.964844 57.453125 0.738281 62.6875 0.644531 69.707031 C 0.574219 74.953125 0.636719 80.207031 0.636719 85.453125 Z M 50.925781 24.289062 C 51 11.546875 41.015625 1.28125 28.40625 1.136719 C 16.09375 0.992188 5.445312 11.46875 5.269531 23.90625 C 5.101562 36.375 15.355469 46.722656 28.015625 46.851562 C 40.839844 46.984375 50.847656 37.128906 50.925781 24.289062 Z M 50.925781 24.289062 " fill-opacity="1" fill-rule="nonzero"/></g><g clip-path="url(#2c044aa414)"><path fill="#000000" d="M 0.636719 85.453125 C 0.636719 80.207031 0.574219 74.953125 0.644531 69.707031 C 0.738281 62.6875 3.964844 57.453125 10.566406 55.132812 C 22.5 50.9375 34.660156 50.9375 46.625 55.039062 C 53.65625 57.445312 56.921875 62.921875 56.953125 70.277344 C 56.992188 80.027344 57.078125 89.773438 56.910156 99.515625 C 56.785156 107.035156 54.058594 113.480469 49.785156 119.859375 C 46.898438 124.160156 46.394531 130.195312 45.339844 135.550781 C 43.824219 143.171875 42.839844 150.890625 41.523438 158.554688 C 40.542969 164.238281 37.832031 166.445312 32.0625 166.511719 C 29.808594 166.53125 27.558594 166.539062 25.3125 166.507812 C 19.488281 166.433594 17.035156 164.285156 16.03125 158.417969 C 14.246094 147.957031 12.644531 137.464844 10.570312 127.066406 C 9.957031 124.007812 8.359375 120.984375 6.597656 118.359375 C 2.988281 112.972656 0.835938 107.207031 0.6875 100.746094 C 0.574219 95.648438 0.667969 90.546875 0.667969 85.453125 C 0.652344 85.453125 0.644531 85.453125 0.636719 85.453125 Z M 0.636719 85.453125 " fill-opacity="1" fill-rule="evenodd"/></g><path fill="#000000" d="M 50.925781 24.289062 C 50.847656 37.128906 40.839844 46.984375 28.015625 46.851562 C 15.355469 46.722656 5.101562 36.375 5.269531 23.90625 C 5.445312 11.46875 16.09375 0.992188 28.40625 1.136719 C 41.015625 1.28125 51 11.546875 50.925781 24.289062 Z M 50.925781 24.289062 " fill-opacity="1" fill-rule="evenodd"/></g></g></g><path fill="#516c2d" d="M 220.011719 202.613281 C 220.023438 202.613281 220.035156 202.613281 220.046875 202.613281 C 220.046875 208.273438 219.945312 213.945312 220.074219 219.605469 C 220.234375 226.78125 222.625 233.191406 226.636719 239.175781 C 228.59375 242.09375 230.371094 245.453125 231.054688 248.847656 C 233.355469 260.40625 235.136719 272.066406 237.121094 283.683594 C 238.234375 290.207031 240.964844 292.589844 247.433594 292.675781 C 249.929688 292.707031 252.429688 292.703125 254.929688 292.675781 C 261.347656 292.601562 264.359375 290.148438 265.441406 283.835938 C 266.90625 275.320312 268.003906 266.742188 269.683594 258.277344 C 270.855469 252.324219 271.414062 245.621094 274.621094 240.84375 C 279.371094 233.753906 282.402344 226.59375 282.539062 218.242188 C 282.730469 207.414062 282.628906 196.585938 282.585938 185.753906 C 282.550781 177.578125 278.925781 171.492188 271.113281 168.820312 C 257.820312 164.257812 244.304688 164.265625 231.046875 168.925781 C 223.710938 171.5 220.125 177.320312 220.023438 185.121094 C 219.945312 190.945312 220.011719 196.78125 220.011719 202.613281 Z M 275.890625 134.652344 C 275.976562 120.496094 264.878906 109.089844 250.871094 108.925781 C 237.191406 108.765625 225.355469 120.410156 225.164062 134.230469 C 224.972656 148.085938 236.371094 159.582031 250.4375 159.722656 C 264.6875 159.871094 275.808594 148.917969 275.890625 134.652344 Z M 275.890625 134.652344 " fill-opacity="1" fill-rule="nonzero"/><path fill="#516c2d" d="M 220.011719 202.613281 C 220.011719 196.78125 219.945312 190.945312 220.023438 185.117188 C 220.125 177.316406 223.714844 171.5 231.046875 168.925781 C 244.304688 164.265625 257.820312 164.257812 271.113281 168.816406 C 278.925781 171.492188 282.550781 177.578125 282.585938 185.753906 C 282.628906 196.585938 282.730469 207.414062 282.539062 218.242188 C 282.402344 226.59375 279.371094 233.753906 274.621094 240.839844 C 271.414062 245.621094 270.855469 252.324219 269.683594 258.277344 C 268.003906 266.742188 266.90625 275.320312 265.441406 283.835938 C 264.359375 290.148438 261.347656 292.601562 254.929688 292.675781 C 252.429688 292.703125 249.929688 292.707031 247.433594 292.675781 C 240.964844 292.589844 238.234375 290.203125 237.121094 283.683594 C 235.132812 272.066406 233.355469 260.40625 231.054688 248.847656 C 230.371094 245.453125 228.59375 242.09375 226.636719 239.175781 C 222.625 233.191406 220.234375 226.78125 220.074219 219.605469 C 219.945312 213.941406 220.046875 208.273438 220.046875 202.613281 C 220.035156 202.613281 220.023438 202.613281 220.011719 202.613281 Z M 220.011719 202.613281 " fill-opacity="1" fill-rule="evenodd"/><path fill="#516c2d" d="M 275.890625 134.652344 C 275.808594 148.917969 264.6875 159.871094 250.4375 159.722656 C 236.371094 159.582031 224.972656 148.085938 225.164062 134.230469 C 225.355469 120.410156 237.1875 108.765625 250.871094 108.925781 C 264.878906 109.089844 275.976562 120.496094 275.890625 134.652344 Z M 275.890625 134.652344 " fill-opacity="1" fill-rule="evenodd"/><path fill="#516c2d" d="M 98.558594 202.613281 C 98.574219 202.613281 98.585938 202.613281 98.597656 202.613281 C 98.597656 208.273438 98.496094 213.945312 98.625 219.605469 C 98.785156 226.78125 101.175781 233.191406 105.183594 239.175781 C 107.144531 242.09375 108.921875 245.453125 109.601562 248.847656 C 111.90625 260.40625 113.683594 272.066406 115.671875 283.683594 C 116.785156 290.207031 119.515625 292.589844 125.984375 292.675781 C 128.480469 292.707031 130.980469 292.703125 133.480469 292.675781 C 139.898438 292.601562 142.910156 290.148438 143.992188 283.835938 C 145.457031 275.320312 146.550781 266.742188 148.230469 258.277344 C 149.40625 252.324219 149.96875 245.621094 153.175781 240.84375 C 157.921875 233.753906 160.949219 226.59375 161.09375 218.242188 C 161.28125 207.414062 161.183594 196.585938 161.136719 185.753906 C 161.101562 177.578125 157.476562 171.492188 149.667969 168.820312 C 136.371094 164.257812 122.855469 164.265625 109.597656 168.925781 C 102.265625 171.5 98.675781 177.320312 98.574219 185.121094 C 98.496094 190.945312 98.558594 196.78125 98.558594 202.613281 Z M 154.441406 134.652344 C 154.527344 120.496094 143.433594 109.089844 129.421875 108.925781 C 115.742188 108.765625 103.90625 120.410156 103.714844 134.230469 C 103.527344 148.085938 114.917969 159.582031 128.988281 159.722656 C 143.238281 159.871094 154.359375 148.917969 154.441406 134.652344 Z M 154.441406 134.652344 " fill-opacity="1" fill-rule="nonzero"/><path fill="#516c2d" d="M 98.558594 202.613281 C 98.558594 196.78125 98.496094 190.945312 98.574219 185.117188 C 98.675781 177.316406 102.265625 171.5 109.597656 168.925781 C 122.855469 164.265625 136.371094 164.257812 149.667969 168.816406 C 157.476562 171.492188 161.101562 177.578125 161.136719 185.753906 C 161.183594 196.585938 161.277344 207.414062 161.09375 218.242188 C 160.949219 226.59375 157.921875 233.753906 153.175781 240.839844 C 149.96875 245.621094 149.40625 252.324219 148.230469 258.277344 C 146.550781 266.742188 145.457031 275.320312 143.992188 283.835938 C 142.910156 290.148438 139.898438 292.601562 133.480469 292.675781 C 130.980469 292.703125 128.480469 292.707031 125.984375 292.675781 C 119.515625 292.589844 116.785156 290.203125 115.671875 283.683594 C 113.683594 272.066406 111.90625 260.40625 109.601562 248.847656 C 108.921875 245.453125 107.144531 242.09375 105.183594 239.175781 C 101.175781 233.191406 98.785156 226.78125 98.625 219.605469 C 98.496094 213.941406 98.597656 208.273438 98.597656 202.613281 C 98.585938 202.613281 98.574219 202.613281 98.558594 202.613281 Z M 98.558594 202.613281 " fill-opacity="1" fill-rule="evenodd"/><path fill="#516c2d" d="M 154.441406 134.652344 C 154.359375 148.917969 143.238281 159.871094 128.988281 159.722656 C 114.917969 159.582031 103.523438 148.085938 103.714844 134.230469 C 103.90625 120.410156 115.738281 108.765625 129.421875 108.925781 C 143.433594 109.089844 154.527344 120.496094 154.441406 134.652344 Z M 154.441406 134.652344 " fill-opacity="1" fill-rule="evenodd"/><g mask="url(#bc0ae607c6)"><g transform="matrix(1, 0, 0, 1, 219, 108)"><g clip-path="url(#84ffd86cf7)"><g clip-path="url(#06ef38c220)"><path fill="#000000" d="M 1.011719 94.613281 C 1.023438 94.613281 1.035156 94.613281 1.046875 94.613281 C 1.046875 100.273438 0.945312 105.945312 1.074219 111.605469 C 1.234375 118.78125 3.625 125.191406 7.636719 131.175781 C 9.59375 134.09375 11.371094 137.453125 12.054688 140.847656 C 14.355469 152.40625 16.136719 164.066406 18.121094 175.683594 C 19.234375 182.207031 21.964844 184.589844 28.433594 184.675781 C 30.929688 184.707031 33.429688 184.703125 35.929688 184.675781 C 42.347656 184.601562 45.359375 182.148438 46.441406 175.835938 C 47.90625 167.320312 49.003906 158.742188 50.683594 150.277344 C 51.855469 144.324219 52.414062 137.621094 55.621094 132.84375 C 60.371094 125.753906 63.402344 118.59375 63.539062 110.242188 C 63.730469 99.414062 63.628906 88.585938 63.585938 77.753906 C 63.550781 69.578125 59.925781 63.492188 52.113281 60.820312 C 38.820312 56.257812 25.304688 56.265625 12.046875 60.925781 C 4.710938 63.5 1.125 69.320312 1.023438 77.121094 C 0.945312 82.945312 1.011719 88.78125 1.011719 94.613281 Z M 56.890625 26.652344 C 56.976562 12.496094 45.878906 1.089844 31.871094 0.925781 C 18.191406 0.765625 6.355469 12.410156 6.164062 26.230469 C 5.972656 40.085938 17.371094 51.582031 31.4375 51.722656 C 45.6875 51.871094 56.808594 40.917969 56.890625 26.652344 Z M 56.890625 26.652344 " fill-opacity="1" fill-rule="nonzero"/></g><g clip-path="url(#6d25e92739)"><path fill="#000000" d="M 1.011719 94.613281 C 1.011719 88.78125 0.945312 82.945312 1.023438 77.117188 C 1.125 69.316406 4.714844 63.5 12.046875 60.925781 C 25.304688 56.265625 38.820312 56.257812 52.113281 60.816406 C 59.925781 63.492188 63.550781 69.578125 63.585938 77.753906 C 63.628906 88.585938 63.730469 99.414062 63.539062 110.242188 C 63.402344 118.59375 60.371094 125.753906 55.621094 132.839844 C 52.414062 137.621094 51.855469 144.324219 50.683594 150.277344 C 49.003906 158.742188 47.90625 167.320312 46.441406 175.835938 C 45.359375 182.148438 42.347656 184.601562 35.929688 184.675781 C 33.429688 184.703125 30.929688 184.707031 28.433594 184.675781 C 21.964844 184.589844 19.234375 182.203125 18.121094 175.683594 C 16.132812 164.066406 14.355469 152.40625 12.054688 140.847656 C 11.371094 137.453125 9.59375 134.09375 7.636719 131.175781 C 3.625 125.191406 1.234375 118.78125 1.074219 111.605469 C 0.945312 105.941406 1.046875 100.273438 1.046875 94.613281 C 1.035156 94.613281 1.023438 94.613281 1.011719 94.613281 Z M 1.011719 94.613281 " fill-opacity="1" fill-rule="evenodd"/></g><g clip-path="url(#ecfdc019bb)"><path fill="#000000" d="M 56.890625 26.652344 C 56.808594 40.917969 45.6875 51.871094 31.4375 51.722656 C 17.371094 51.582031 5.972656 40.085938 6.164062 26.230469 C 6.355469 12.410156 18.1875 0.765625 31.871094 0.925781 C 45.878906 1.089844 56.976562 12.496094 56.890625 26.652344 Z M 56.890625 26.652344 " fill-opacity="1" fill-rule="evenodd"/></g></g></g></g><g mask="url(#5d0b94149c)"><g transform="matrix(1, 0, 0, 1, 98, 108)"><g clip-path="url(#3cdc2fb020)"><g clip-path="url(#8bbb2f69cf)"><path fill="#000000" d="M 0.558594 94.613281 C 0.574219 94.613281 0.585938 94.613281 0.597656 94.613281 C 0.597656 100.273438 0.496094 105.945312 0.625 111.605469 C 0.785156 118.78125 3.175781 125.191406 7.183594 131.175781 C 9.144531 134.09375 10.921875 137.453125 11.601562 140.847656 C 13.90625 152.40625 15.683594 164.066406 17.671875 175.683594 C 18.785156 182.207031 21.515625 184.589844 27.984375 184.675781 C 30.480469 184.707031 32.980469 184.703125 35.480469 184.675781 C 41.898438 184.601562 44.910156 182.148438 45.992188 175.835938 C 47.457031 167.320312 48.550781 158.742188 50.230469 150.277344 C 51.40625 144.324219 51.96875 137.621094 55.175781 132.84375 C 59.921875 125.753906 62.949219 118.59375 63.09375 110.242188 C 63.28125 99.414062 63.183594 88.585938 63.136719 77.753906 C 63.101562 69.578125 59.476562 63.492188 51.667969 60.820312 C 38.371094 56.257812 24.855469 56.265625 11.597656 60.925781 C 4.265625 63.5 0.675781 69.320312 0.574219 77.121094 C 0.496094 82.945312 0.558594 88.78125 0.558594 94.613281 Z M 56.441406 26.652344 C 56.527344 12.496094 45.433594 1.089844 31.421875 0.925781 C 17.742188 0.765625 5.90625 12.410156 5.714844 26.230469 C 5.527344 40.085938 16.917969 51.582031 30.988281 51.722656 C 45.238281 51.871094 56.359375 40.917969 56.441406 26.652344 Z M 56.441406 26.652344 " fill-opacity="1" fill-rule="nonzero"/></g><g clip-path="url(#7931c0fa94)"><path fill="#000000" d="M 0.558594 94.613281 C 0.558594 88.78125 0.496094 82.945312 0.574219 77.117188 C 0.675781 69.316406 4.265625 63.5 11.597656 60.925781 C 24.855469 56.265625 38.371094 56.257812 51.667969 60.816406 C 59.476562 63.492188 63.101562 69.578125 63.136719 77.753906 C 63.183594 88.585938 63.277344 99.414062 63.09375 110.242188 C 62.949219 118.59375 59.921875 125.753906 55.175781 132.839844 C 51.96875 137.621094 51.40625 144.324219 50.230469 150.277344 C 48.550781 158.742188 47.457031 167.320312 45.992188 175.835938 C 44.910156 182.148438 41.898438 184.601562 35.480469 184.675781 C 32.980469 184.703125 30.480469 184.707031 27.984375 184.675781 C 21.515625 184.589844 18.785156 182.203125 17.671875 175.683594 C 15.683594 164.066406 13.90625 152.40625 11.601562 140.847656 C 10.921875 137.453125 9.144531 134.09375 7.183594 131.175781 C 3.175781 125.191406 0.785156 118.78125 0.625 111.605469 C 0.496094 105.941406 0.597656 100.273438 0.597656 94.613281 C 0.585938 94.613281 0.574219 94.613281 0.558594 94.613281 Z M 0.558594 94.613281 " fill-opacity="1" fill-rule="evenodd"/></g><g clip-path="url(#b032158a14)"><path fill="#000000" d="M 56.441406 26.652344 C 56.359375 40.917969 45.238281 51.871094 30.988281 51.722656 C 16.917969 51.582031 5.523438 40.085938 5.714844 26.230469 C 5.90625 12.410156 17.738281 0.765625 31.421875 0.925781 C 45.433594 1.089844 56.527344 12.496094 56.441406 26.652344 Z M 56.441406 26.652344 " fill-opacity="1" fill-rule="evenodd"/></g></g></g></g><path fill="#516c2d" d="M 153.644531 235.671875 C 153.660156 235.671875 153.671875 235.671875 153.6875 235.671875 C 153.6875 241.964844 153.574219 248.261719 153.714844 254.554688 C 153.894531 262.527344 156.550781 269.652344 161.007812 276.296875 C 163.183594 279.539062 165.160156 283.273438 165.914062 287.050781 C 168.476562 299.886719 170.453125 312.84375 172.660156 325.753906 C 173.894531 333 176.929688 335.648438 184.113281 335.742188 C 186.890625 335.777344 189.667969 335.777344 192.445312 335.746094 C 199.574219 335.664062 202.921875 332.9375 204.128906 325.917969 C 205.753906 316.460938 206.972656 306.929688 208.835938 297.523438 C 210.144531 290.90625 210.765625 283.460938 214.328125 278.152344 C 219.605469 270.273438 222.96875 262.320312 223.128906 253.039062 C 223.332031 241.011719 223.226562 228.972656 223.175781 216.941406 C 223.136719 207.855469 219.105469 201.09375 210.429688 198.121094 C 195.660156 193.058594 180.640625 193.066406 165.910156 198.242188 C 157.761719 201.105469 153.773438 207.570312 153.660156 216.234375 C 153.578125 222.710938 153.644531 229.195312 153.644531 235.671875 Z M 215.734375 160.164062 C 215.828125 144.433594 203.5 131.757812 187.9375 131.574219 C 172.734375 131.398438 159.585938 144.339844 159.375 159.691406 C 159.160156 175.085938 171.824219 187.859375 187.453125 188.019531 C 203.289062 188.179688 215.640625 176.011719 215.734375 160.164062 Z M 215.734375 160.164062 " fill-opacity="1" fill-rule="nonzero"/><path fill="#516c2d" d="M 153.644531 235.671875 C 153.644531 229.195312 153.578125 222.710938 153.660156 216.234375 C 153.773438 207.570312 157.761719 201.105469 165.914062 198.242188 C 180.640625 193.066406 195.660156 193.058594 210.429688 198.121094 C 219.105469 201.09375 223.136719 207.855469 223.175781 216.941406 C 223.226562 228.972656 223.335938 241.011719 223.128906 253.039062 C 222.96875 262.320312 219.605469 270.273438 214.328125 278.152344 C 210.765625 283.460938 210.144531 290.90625 208.835938 297.523438 C 206.972656 306.929688 205.753906 316.460938 204.128906 325.917969 C 202.925781 332.9375 199.574219 335.664062 192.445312 335.746094 C 189.667969 335.777344 186.890625 335.777344 184.113281 335.742188 C 176.929688 335.648438 173.894531 333 172.660156 325.753906 C 170.453125 312.84375 168.476562 299.886719 165.914062 287.050781 C 165.160156 283.273438 163.183594 279.539062 161.007812 276.296875 C 156.554688 269.648438 153.894531 262.527344 153.71875 254.554688 C 153.574219 248.261719 153.6875 241.964844 153.6875 235.671875 C 153.671875 235.671875 153.660156 235.671875 153.644531 235.671875 Z M 153.644531 235.671875 " fill-opacity="1" fill-rule="evenodd"/><path fill="#516c2d" d="M 215.734375 160.164062 C 215.640625 176.011719 203.289062 188.179688 187.453125 188.019531 C 171.824219 187.859375 159.160156 175.085938 159.375 159.691406 C 159.585938 144.339844 172.734375 131.398438 187.9375 131.574219 C 203.5 131.757812 215.828125 144.433594 215.734375 160.164062 Z M 215.734375 160.164062 " fill-opacity="1" fill-rule="evenodd"/><g clip-path="url(#353c7c2585)"><g mask="url(#cc4c470b39)"><g transform="matrix(1, 0, 0, 1, 152, 131)"><g clip-path="url(#5ff79ad77d)"><g clip-path="url(#d45a73ee24)"><path fill="#ffffff" d="M 1.644531 104.671875 C 1.660156 104.671875 1.671875 104.671875 1.6875 104.671875 C 1.6875 110.964844 1.574219 117.261719 1.714844 123.554688 C 1.894531 131.527344 4.550781 138.652344 9.007812 145.296875 C 11.183594 148.539062 13.160156 152.273438 13.914062 156.050781 C 16.476562 168.886719 18.453125 181.84375 20.660156 194.753906 C 21.894531 202 24.929688 204.648438 32.113281 204.742188 C 34.890625 204.777344 37.667969 204.777344 40.445312 204.746094 C 47.574219 204.664062 50.921875 201.9375 52.128906 194.917969 C 53.753906 185.460938 54.972656 175.929688 56.835938 166.523438 C 58.144531 159.90625 58.765625 152.460938 62.328125 147.152344 C 67.605469 139.273438 70.96875 131.320312 71.128906 122.039062 C 71.332031 110.011719 71.226562 97.972656 71.175781 85.941406 C 71.136719 76.855469 67.105469 70.09375 58.429688 67.121094 C 43.660156 62.058594 28.640625 62.066406 13.910156 67.242188 C 5.761719 70.105469 1.773438 76.570312 1.660156 85.234375 C 1.578125 91.710938 1.644531 98.195312 1.644531 104.671875 Z M 63.734375 29.164062 C 63.828125 13.433594 51.5 0.757812 35.9375 0.574219 C 20.734375 0.398438 7.585938 13.339844 7.375 28.691406 C 7.160156 44.085938 19.824219 56.859375 35.453125 57.019531 C 51.289062 57.179688 63.640625 45.011719 63.734375 29.164062 Z M 63.734375 29.164062 " fill-opacity="1" fill-rule="nonzero"/></g><g clip-path="url(#f686340b17)"><path fill="#ffffff" d="M 1.644531 104.671875 C 1.644531 98.195312 1.578125 91.710938 1.660156 85.234375 C 1.773438 76.570312 5.761719 70.105469 13.914062 67.242188 C 28.640625 62.066406 43.660156 62.058594 58.429688 67.121094 C 67.105469 70.09375 71.136719 76.855469 71.175781 85.941406 C 71.226562 97.972656 71.335938 110.011719 71.128906 122.039062 C 70.96875 131.320312 67.605469 139.273438 62.328125 147.152344 C 58.765625 152.460938 58.144531 159.90625 56.835938 166.523438 C 54.972656 175.929688 53.753906 185.460938 52.128906 194.917969 C 50.925781 201.9375 47.574219 204.664062 40.445312 204.746094 C 37.667969 204.777344 34.890625 204.777344 32.113281 204.742188 C 24.929688 204.648438 21.894531 202 20.660156 194.753906 C 18.453125 181.84375 16.476562 168.886719 13.914062 156.050781 C 13.160156 152.273438 11.183594 148.539062 9.007812 145.296875 C 4.554688 138.648438 1.894531 131.527344 1.71875 123.554688 C 1.574219 117.261719 1.6875 110.964844 1.6875 104.671875 C 1.671875 104.671875 1.660156 104.671875 1.644531 104.671875 Z M 1.644531 104.671875 " fill-opacity="1" fill-rule="evenodd"/></g><g clip-path="url(#ec3e865fc9)"><path fill="#ffffff" d="M 63.734375 29.164062 C 63.640625 45.011719 51.289062 57.179688 35.453125 57.019531 C 19.824219 56.859375 7.160156 44.085938 7.375 28.691406 C 7.585938 13.339844 20.734375 0.398438 35.9375 0.574219 C 51.5 0.757812 63.828125 13.433594 63.734375 29.164062 Z M 63.734375 29.164062 " fill-opacity="1" fill-rule="evenodd"/></g></g></g></g></g></svg>